<svg width="467" height="212" viewBox="0 0 467 212" fill="none" xmlns="http://www.w3.org/2000/svg">
<path d="M35.8599 189.674C50.309 189.674 62.0223 177.961 62.0223 163.512C62.0223 149.062 50.309 137.349 35.8599 137.349C21.4108 137.349 9.69751 149.062 9.69751 163.512C9.69751 177.961 21.4108 189.674 35.8599 189.674Z" stroke="#FF4A00" stroke-width="3" stroke-linecap="round" stroke-linejoin="round"/>
<path d="M77.7197 231.534C77.7197 220.432 73.3094 209.785 65.4592 201.934C57.609 194.084 46.9618 189.674 35.8598 189.674C24.7579 189.674 14.1107 194.084 6.26046 201.934C-1.58978 209.785 -6 220.432 -6 231.534" stroke="#FF4A00" stroke-width="3" stroke-linecap="round" stroke-linejoin="round"/>
<path d="M136.682 172.851C156.776 172.851 173.065 156.562 173.065 136.469C173.065 116.375 156.776 100.086 136.682 100.086C116.588 100.086 100.299 116.375 100.299 136.469C100.299 156.562 116.588 172.851 136.682 172.851Z" stroke="#FF4A00" stroke-width="3" stroke-linecap="round" stroke-linejoin="round"/>
<path d="M195.364 231.534C195.364 215.97 189.181 201.044 178.176 190.039C167.171 179.034 152.245 172.852 136.682 172.852C121.119 172.852 106.193 179.034 95.1876 190.039C84.1826 201.044 78 215.97 78 231.534" stroke="#FF4A00" stroke-width="3" stroke-linecap="round" stroke-linejoin="round"/>
<path d="M271.873 155.247C298.125 155.247 319.406 133.966 319.406 107.715C319.406 81.4631 298.125 60.1821 271.873 60.1821C245.622 60.1821 224.341 81.4631 224.341 107.715C224.341 133.966 245.622 155.247 271.873 155.247Z" stroke="#FF4A00" stroke-width="3" stroke-linecap="round" stroke-linejoin="round"/>
<path d="M348.747 231.534C348.747 211.301 340.648 191.897 326.231 177.591C311.815 163.284 292.262 155.247 271.873 155.247C251.485 155.247 231.932 163.284 217.516 177.591C203.099 191.897 195 211.301 195 231.534" stroke="#FF4A00" stroke-width="3" stroke-linecap="round" stroke-linejoin="round"/>
<path d="M452.28 129.427C487.282 129.427 515.657 100.789 515.657 65.4634C515.657 30.1374 487.282 1.5 452.28 1.5C417.278 1.5 388.904 30.1374 388.904 65.4634C388.904 100.789 417.278 129.427 452.28 129.427Z" stroke="#FF4A00" stroke-width="3" stroke-linecap="round" stroke-linejoin="round"/>
<path d="M555.561 231.533C555.561 204.453 544.679 178.482 525.311 159.333C505.942 140.184 479.672 129.427 452.28 129.427C424.889 129.427 398.619 140.184 379.25 159.333C359.881 178.482 349 204.453 349 231.533" stroke="#FF4A00" stroke-width="3" stroke-linecap="round" stroke-linejoin="round"/>
</svg>
