<svg width="280" height="142" viewBox="0 0 280 142" fill="none" xmlns="http://www.w3.org/2000/svg">
<path d="M271.241 89.286C270.254 91.5564 270.035 94.0441 270.61 96.4293L277.756 116.568C277.986 117.589 277.927 118.647 277.583 119.641C277.239 120.636 276.623 121.533 275.792 122.25C274.962 122.966 273.944 123.476 272.837 123.733C271.729 123.99 270.568 123.984 269.463 123.717L246.563 117.608C244.096 117.162 241.541 117.357 239.189 118.171C224.862 124.275 208.632 125.567 193.362 121.818C178.092 118.069 164.765 109.52 155.731 97.6802C146.697 85.8404 142.537 71.4702 143.985 57.105C145.433 42.7398 152.396 29.3027 163.646 19.1646C174.895 9.02653 189.708 2.83887 205.471 1.69337C221.234 0.547864 236.934 4.51813 249.801 12.9037C262.668 21.2892 271.875 33.5512 275.798 47.5261C279.72 61.501 278.107 76.2908 271.241 89.286Z" stroke="#FF4A00" stroke-width="3" stroke-linecap="round" stroke-linejoin="round"/>
<path d="M9.34556 114.145C10.5088 116.822 10.7678 119.755 10.0892 122.568L1.66369 146.313C1.39221 147.517 1.4624 148.764 1.86761 149.937C2.27282 151.109 2.99961 152.168 3.97907 153.012C4.95852 153.857 6.15817 154.459 7.46425 154.762C8.77033 155.064 10.1395 155.058 11.4421 154.742L38.4433 147.54C41.3524 147.013 44.3651 147.243 47.1378 148.204C64.0315 155.401 83.1687 156.924 101.173 152.503C119.177 148.083 134.892 138.003 145.544 124.043C156.196 110.082 161.101 93.1382 159.393 76.2001C157.686 59.262 149.476 43.4183 136.212 31.4644C122.947 19.5106 105.481 12.2147 86.8951 10.864C68.3089 9.51332 49.7971 14.1947 34.6256 24.0821C19.4542 33.9696 8.59819 48.4277 3.97295 64.9056C-0.652295 81.3835 1.25048 98.8222 9.34556 114.145Z" fill="#FFFEFB" stroke="#FF4A00" stroke-width="3" stroke-linecap="round" stroke-linejoin="round"/>
<path d="M72.1465 87.5558C72.1465 85.2758 72.4305 83.3558 72.9984 81.7958C73.607 80.2358 74.3778 78.9358 75.3108 77.8958C76.2845 76.8158 77.2987 75.8758 78.3534 75.0758C79.4082 74.2758 80.4021 73.4958 81.3352 72.7358C82.3088 71.9358 83.0796 71.0558 83.6475 70.0958C84.2561 69.1358 84.5603 67.9558 84.5603 66.5558C84.5603 64.4358 83.7287 62.7358 82.0654 61.4558C80.4021 60.1358 78.1303 59.4758 75.25 59.4758C72.2074 59.4758 69.7327 60.2558 67.826 61.8158C65.9193 63.3358 64.7429 65.4958 64.2966 68.2958H59.4285C59.7124 65.6158 60.5441 63.2958 61.9234 61.3358C63.3433 59.3758 65.2094 57.8558 67.5218 56.7758C69.8341 55.6958 72.4711 55.1558 75.4325 55.1558C78.2317 55.1558 80.6658 55.6358 82.7348 56.5958C84.8443 57.5158 86.4873 58.8358 87.6638 60.5558C88.8402 62.2758 89.4285 64.3158 89.4285 66.6758C89.4285 68.5558 89.1242 70.1158 88.5157 71.3558C87.9072 72.5958 87.1161 73.6558 86.1425 74.5358C85.2094 75.4158 84.1952 76.2358 83.0999 76.9958C82.0045 77.7558 80.9701 78.5758 79.9964 79.4558C79.0634 80.3358 78.2926 81.4158 77.684 82.6958C77.0755 83.9758 76.7713 85.5958 76.7713 87.5558H72.1465ZM71.2946 100.156V93.9758H77.5623V100.156H71.2946Z" fill="#FF4A00"/>
<line x1="172.928" y1="36.6558" x2="227.928" y2="36.6558" stroke="#FF4A00" stroke-width="3" stroke-linecap="round"/>
<path d="M178.428 54.1558H228.428" stroke="#FF4A00" stroke-width="3" stroke-linecap="round"/>
<path d="M184.428 71.1558H228.428" stroke="#FF4A00" stroke-width="3" stroke-linecap="round"/>
</svg>
