<svg width="128" height="37" viewBox="0 0 128 37" fill="none" xmlns="http://www.w3.org/2000/svg">
<path d="M120.182 28.5793C118.513 28.5793 117.027 28.1906 115.724 27.4133C114.421 26.6132 113.392 25.5273 112.637 24.1556C111.906 22.7839 111.54 21.2179 111.54 19.4576C111.54 17.6973 111.906 16.1427 112.637 14.7939C113.392 13.4222 114.421 12.3478 115.724 11.5705C117.027 10.7932 118.501 10.4046 120.147 10.4046C121.542 10.4046 122.788 10.6675 123.885 11.1933C124.983 11.7191 125.886 12.4506 126.594 13.388C127.303 14.3253 127.76 15.434 127.966 16.7143H124.605C124.377 15.6855 123.874 14.8625 123.096 14.2452C122.342 13.628 121.382 13.3194 120.216 13.3194C119.21 13.3194 118.33 13.5708 117.575 14.0738C116.821 14.5767 116.238 15.2854 115.827 16.1999C115.415 17.1143 115.209 18.2002 115.209 19.4576C115.209 20.6921 115.415 21.778 115.827 22.7153C116.238 23.6527 116.821 24.3842 117.575 24.91C118.33 25.413 119.221 25.6644 120.25 25.6644C121.37 25.6644 122.319 25.3672 123.096 24.7729C123.897 24.1556 124.411 23.3326 124.64 22.3038H128C127.772 23.5612 127.292 24.6586 126.56 25.5959C125.851 26.5332 124.948 27.2647 123.851 27.7905C122.754 28.3163 121.53 28.5793 120.182 28.5793Z" fill="#161513"/>
<path d="M106.463 28.2364V10.7475H110.03V28.2364H106.463ZM106.292 7.31835V3.3062H110.235V7.31835H106.292Z" fill="#161513"/>
<path d="M102.6 28.5794C100.566 28.5794 99.0682 28.1108 98.1081 27.1735C97.1707 26.2133 96.7021 24.8073 96.7021 22.9556V6.73552L100.234 5.39814V22.9899C100.234 23.9043 100.474 24.5787 100.954 25.0131C101.434 25.4475 102.212 25.6646 103.286 25.6646C103.698 25.6646 104.063 25.6303 104.383 25.5618C104.704 25.4932 104.978 25.4132 105.206 25.3217V28.2022C104.955 28.3165 104.601 28.408 104.143 28.4766C103.686 28.5452 103.172 28.5794 102.6 28.5794ZM93.2043 13.5939V10.7477H105.206V13.5939H93.2043Z" fill="#161513"/>
<path d="M86.9826 28.5793C84.6964 28.5793 82.879 28.0763 81.5302 27.0704C80.1813 26.0645 79.4155 24.6471 79.2326 22.8182H82.5246C82.6847 23.8241 83.1419 24.6014 83.8963 25.1501C84.6736 25.6759 85.7252 25.9388 87.0512 25.9388C88.2171 25.9388 89.1087 25.733 89.7259 25.3215C90.3432 24.91 90.6518 24.3271 90.6518 23.5726C90.6518 23.024 90.4689 22.5667 90.1031 22.201C89.7602 21.8123 89.0744 21.4923 88.0456 21.2408L85.2337 20.5892C83.4734 20.1549 82.1588 19.5148 81.2901 18.6689C80.4443 17.8002 80.0213 16.7371 80.0213 15.4798C80.0213 13.9023 80.6043 12.6678 81.7702 11.7762C82.959 10.8618 84.5821 10.4046 86.6397 10.4046C88.6743 10.4046 90.3089 10.8618 91.5434 11.7762C92.8008 12.6907 93.5095 13.9709 93.6695 15.6169H90.3775C90.2403 14.7939 89.8402 14.1652 89.1772 13.7309C88.5371 13.2736 87.657 13.045 86.5368 13.045C85.4852 13.045 84.6736 13.2394 84.1021 13.628C83.5534 13.9938 83.279 14.5082 83.279 15.1711C83.279 15.7198 83.4848 16.177 83.8963 16.5428C84.3307 16.9086 85.0394 17.2172 86.0224 17.4687L88.9029 18.1888C90.5718 18.6003 91.8292 19.2747 92.675 20.212C93.5209 21.1265 93.9438 22.2353 93.9438 23.5383C93.9438 25.1158 93.3266 26.3503 92.0921 27.2419C90.8804 28.1335 89.1772 28.5793 86.9826 28.5793Z" fill="#161513"/>
<path d="M70.9943 28.545C69.3483 28.545 67.9766 28.1563 66.8793 27.379C65.8048 26.5789 65.0961 25.4701 64.7532 24.0527L65.2333 23.9841V35.2662H61.6669V10.7475H65.0618V14.7596L64.7189 14.6568C65.0847 13.3308 65.862 12.2906 67.0508 11.5362C68.2395 10.7818 69.6341 10.4046 71.2344 10.4046C72.8118 10.4046 74.172 10.7818 75.3151 11.5362C76.481 12.2906 77.3726 13.3422 77.9899 14.691C78.63 16.0399 78.95 17.6173 78.95 19.4233C78.95 21.2522 78.6185 22.8525 77.9556 24.2242C77.2926 25.5959 76.3667 26.6589 75.1779 27.4133C73.9891 28.1677 72.5946 28.545 70.9943 28.545ZM70.2399 25.5959C71.7945 25.5959 73.029 25.0472 73.9434 23.9499C74.8579 22.8525 75.3151 21.3437 75.3151 19.4233C75.3151 17.5258 74.8579 16.0513 73.9434 14.9997C73.029 13.9252 71.783 13.388 70.2056 13.388C68.651 13.388 67.4051 13.9366 66.4678 15.034C65.5533 16.1084 65.0961 17.6059 65.0961 19.5262C65.0961 21.4008 65.5533 22.8868 66.4678 23.9841C67.4051 25.0586 68.6625 25.5959 70.2399 25.5959Z" fill="#161513"/>
<path d="M37.2359 28.2363L46.529 3.54616H49.6839L40.8023 28.2363H37.2359ZM56.3365 28.2363L47.4549 3.54616H50.7812L60.1086 28.2363H56.3365ZM41.9339 18.3945H55.1705V21.4122H41.9339V18.3945Z" fill="#161513"/>
<path d="M15.2025 19.0126L0 10.3255V27.6811L15.2025 36.3683V19.0126Z" fill="#FF4A00"/>
<path d="M17.2995 19.0126V36.3683L32.5021 27.6811V10.3255L17.2995 19.0126Z" fill="#FF4A00"/>
<path d="M1.06491 8.51875L16.2511 17.1965L31.4374 8.51875L16.7714 0.138136C16.449 -0.0460454 16.0533 -0.0460454 15.731 0.138136L1.06491 8.51875Z" fill="#FF4A00"/>
</svg>
