<svg width="376" height="153" viewBox="0 0 376 153" fill="none" xmlns="http://www.w3.org/2000/svg">
<path d="M228.717 176.764C223.211 176.764 217.931 174.769 214.038 171.218C210.145 167.666 207.958 162.849 207.958 157.826V82.0718C207.957 78.9547 208.8 75.8856 210.411 73.137C212.023 70.3883 214.353 68.045 217.195 66.315L279.473 28.4379C282.885 26.3615 286.894 25.2534 290.995 25.2534C295.096 25.2534 299.105 26.3615 302.516 28.4379L364.794 66.315C367.637 68.045 369.967 70.3883 371.578 73.137C373.19 75.8856 374.033 78.9547 374.032 82.0718V157.826C374.032 162.849 371.845 167.666 367.952 171.218C364.059 174.769 358.779 176.764 353.273 176.764H228.717Z" stroke="#FF4A00" stroke-width="3" stroke-linecap="round" stroke-linejoin="round"/>
<path d="M290.995 176.764V119.949" stroke="#FF4A00" stroke-width="3" stroke-linecap="round" stroke-linejoin="round"/>
<path d="M179.598 29.3876C160.033 11.5315 133.497 1.5 105.827 1.5C78.158 1.5 51.6219 11.5315 32.0568 29.3876C12.4916 47.2437 1.5 71.4617 1.5 96.7141C1.5 156.14 73.7336 218.029 97.9897 237.143C100.251 238.691 103.001 239.526 105.827 239.523" stroke="#FF4A00" stroke-width="3" stroke-linecap="round" stroke-linejoin="round"/>
<path d="M105.296 132.93C126.91 132.93 144.432 116.945 144.432 97.2269C144.432 77.5084 126.91 61.5234 105.296 61.5234C83.6816 61.5234 66.1598 77.5084 66.1598 97.2269C66.1598 116.945 83.6816 132.93 105.296 132.93Z" stroke="#FF4A00" stroke-width="3" stroke-linecap="round" stroke-linejoin="round"/>
</svg>
